<svg width="32" height="32" viewBox="0 0 32 32" fill="none" xmlns="http://www.w3.org/2000/svg">
<g clip-path="url(#clip0_1509_33)">
<path fill-rule="evenodd" clip-rule="evenodd" d="M26.4667 11.6667L32 12.7733V19.2267L26.4667 20.3333L29.6 25.0267L25.0267 29.6L20.3333 26.4667L19.2267 32H12.7733L11.6667 26.4667L6.97333 29.6L2.4 25.0267L5.53333 20.3333L0 19.2267V12.7733L5.53333 11.6667L2.4 6.97333L6.97333 2.4L11.6667 5.53333L12.7733 0H19.2267L20.3333 5.53333L25.0267 2.4L29.6 6.97333L26.4667 11.6667ZM24.3733 18.4267L29.7067 17.3467V14.68L24.3733 13.6L23.6533 11.8667L26.7067 7.29333L24.8 5.38667L20.2267 8.44L18.4933 7.72L17.4133 2.38667H14.7467L13.6667 7.72L11.9333 8.44L7.36 5.38667L5.45333 7.29333L8.50667 11.8667L7.78667 13.6L2.45333 14.68V17.3467L7.78667 18.4267L8.50667 20.16L5.45333 24.7333L7.36 26.64L11.9333 23.5867L13.6667 24.3067L14.7467 29.64H17.4133L18.4933 24.3067L20.2267 23.5867L24.8 26.64L26.7067 24.7333L23.6533 20.16L24.3733 18.4267ZM13.4587 12.1973C14.2109 11.6947 15.0953 11.4265 16 11.4267C17.2118 11.4302 18.373 11.9131 19.2299 12.7701C20.0869 13.627 20.5698 14.7882 20.5733 16C20.5733 16.7901 20.3685 17.5666 19.9791 18.254C19.5896 18.9414 19.0287 19.5162 18.351 19.9223C17.6734 20.3285 16.902 20.5521 16.1122 20.5715C15.3224 20.5909 14.541 20.4054 13.8442 20.0329C13.1475 19.6605 12.559 19.114 12.1363 18.4465C11.7136 17.779 11.471 17.0134 11.4322 16.2243C11.3934 15.4352 11.5596 14.6495 11.9148 13.9438C12.2699 13.2381 12.8018 12.6364 13.4587 12.1973ZM14.7333 17.896C15.108 18.1467 15.5493 18.28 16 18.28C16.2999 18.2818 16.5972 18.224 16.8746 18.1101C17.152 17.9961 17.4041 17.8282 17.6161 17.6161C17.8282 17.4041 17.9961 17.152 18.1101 16.8746C18.224 16.5972 18.2818 16.2999 18.28 16C18.28 15.6061 18.1779 15.2189 17.9837 14.8762C17.7895 14.5335 17.5099 14.247 17.172 14.0445C16.8341 13.842 16.4496 13.7306 16.0558 13.7209C15.662 13.7113 15.2725 13.8038 14.9251 13.9895C14.5777 14.1752 14.2844 14.4477 14.0737 14.7805C13.863 15.1133 13.7421 15.495 13.7227 15.8884C13.7034 16.2819 13.7864 16.6736 13.9635 17.0254C14.1406 17.3772 14.4058 17.6772 14.7333 17.896Z" fill="#FFC362"/>
</g>
<defs>
<clipPath id="clip0_1509_33">
<rect width="32" height="32" fill="white"/>
</clipPath>
</defs>
</svg>
