<svg width="41" height="38" viewBox="0 0 41 38" fill="none" xmlns="http://www.w3.org/2000/svg">
<path d="M1.97674 5.25581H3.46512V6.74419H1.97674V5.25581ZM0.488372 6.74419H1.97674V8.23256H0.488372V6.74419ZM10.907 0.790699H12.3953V2.27907H10.907V0.790699ZM12.3953 0.790699H13.8837V2.27907H12.3953V0.790699ZM13.8837 0.790699H15.3721V2.27907H13.8837V0.790699ZM13.8837 2.27907H15.3721V3.76744H13.8837V2.27907ZM12.3953 2.27907H13.8837V3.76744H12.3953V2.27907ZM10.907 2.27907H12.3953V3.76744H10.907V2.27907ZM9.4186 2.27907H10.907V3.76744H9.4186V2.27907ZM7.93023 2.27907H9.4186V3.76744H7.93023V2.27907ZM15.3721 2.27907H16.8605V3.76744H15.3721V2.27907ZM16.8605 2.27907H18.3488V3.76744H16.8605V2.27907ZM18.3488 2.27907H19.8372V3.76744H18.3488V2.27907ZM19.8372 2.27907H21.3256V3.76744H19.8372V2.27907ZM21.3256 2.27907H22.814V3.76744H21.3256V2.27907ZM18.3488 0.790699H19.8372V2.27907H18.3488V0.790699ZM16.8605 0.790699H18.3488V2.27907H16.8605V0.790699ZM15.3721 0.790699H16.8605V2.27907H15.3721V0.790699ZM12.3953 15.6744H13.8837V17.1628H12.3953V15.6744ZM10.907 15.6744H12.3953V17.1628H10.907V15.6744ZM10.907 17.1628H12.3953V18.6512H10.907V17.1628ZM9.4186 17.1628H10.907V18.6512H9.4186V17.1628ZM7.93023 15.6744H9.4186V17.1628H7.93023V15.6744ZM9.4186 15.6744H10.907V17.1628H9.4186V15.6744ZM7.93023 17.1628H9.4186V18.6512H7.93023V17.1628ZM7.93023 18.6512H9.4186V20.1395H7.93023V18.6512ZM9.4186 18.6512H10.907V20.1395H9.4186V18.6512ZM10.907 18.6512H12.3953V20.1395H10.907V18.6512ZM12.3953 18.6512H13.8837V20.1395H12.3953V18.6512ZM12.3953 17.1628H13.8837V18.6512H12.3953V17.1628ZM16.8605 12.6977H18.3488V14.186H16.8605V12.6977ZM18.3488 14.186H19.8372V15.6744H18.3488V14.186ZM18.3488 12.6977H19.8372V14.186H18.3488V12.6977ZM19.8372 12.6977H21.3256V14.186H19.8372V12.6977ZM21.3256 12.6977H22.814V14.186H21.3256V12.6977ZM21.3256 14.186H22.814V15.6744H21.3256V14.186ZM19.8372 14.186H21.3256V15.6744H19.8372V14.186ZM22.814 11.2093H24.3023V12.6977H22.814V11.2093ZM24.3023 9.72093H25.7907V11.2093H24.3023V9.72093ZM24.3023 11.2093H25.7907V12.6977H24.3023V11.2093ZM24.3023 12.6977H25.7907V14.186H24.3023V12.6977ZM24.3023 14.186H25.7907V15.6744H24.3023V14.186ZM24.3023 15.6744H25.7907V17.1628H24.3023V15.6744ZM22.814 17.1628H24.3023V18.6512H22.814V17.1628ZM22.814 15.6744H24.3023V17.1628H22.814V15.6744ZM22.814 14.186H24.3023V15.6744H22.814V14.186ZM22.814 12.6977H24.3023V14.186H22.814V12.6977ZM22.814 18.6512H24.3023V20.1395H22.814V18.6512ZM22.814 20.1395H24.3023V21.6279H22.814V20.1395ZM24.3023 20.1395H25.7907V21.6279H24.3023V20.1395ZM24.3023 18.6512H25.7907V20.1395H24.3023V18.6512ZM24.3023 17.1628H25.7907V18.6512H24.3023V17.1628ZM24.3023 21.6279H25.7907V23.1163H24.3023V21.6279ZM24.3023 23.1163H25.7907V24.6047H24.3023V23.1163ZM22.814 23.1163H24.3023V24.6047H22.814V23.1163ZM22.814 21.6279H24.3023V23.1163H22.814V21.6279ZM21.3256 18.6512H22.814V20.1395H21.3256V18.6512ZM19.8372 18.6512H21.3256V20.1395H19.8372V18.6512ZM18.3488 18.6512H19.8372V20.1395H18.3488V18.6512ZM16.8605 18.6512H18.3488V20.1395H16.8605V18.6512ZM16.8605 20.1395H18.3488V21.6279H16.8605V20.1395ZM21.3256 20.1395H22.814V21.6279H21.3256V20.1395ZM19.8372 20.1395H21.3256V21.6279H19.8372V20.1395ZM18.3488 20.1395H19.8372V21.6279H18.3488V20.1395ZM25.7907 8.23256H27.2791V9.72093H25.7907V8.23256ZM25.7907 6.74419H27.2791V8.23256H25.7907V6.74419ZM27.2791 6.74419H28.7674V8.23256H27.2791V6.74419ZM27.2791 8.23256H28.7674V9.72093H27.2791V8.23256ZM27.2791 9.72093H28.7674V11.2093H27.2791V9.72093ZM25.7907 11.2093H27.2791V12.6977H25.7907V11.2093ZM25.7907 12.6977H27.2791V14.186H25.7907V12.6977ZM25.7907 14.186H27.2791V15.6744H25.7907V14.186ZM25.7907 15.6744H27.2791V17.1628H25.7907V15.6744ZM25.7907 17.1628H27.2791V18.6512H25.7907V17.1628ZM25.7907 9.72093H27.2791V11.2093H25.7907V9.72093ZM27.2791 11.2093H28.7674V12.6977H27.2791V11.2093ZM27.2791 12.6977H28.7674V14.186H27.2791V12.6977ZM27.2791 14.186H28.7674V15.6744H27.2791V14.186ZM27.2791 15.6744H28.7674V17.1628H27.2791V15.6744ZM27.2791 17.1628H28.7674V18.6512H27.2791V17.1628ZM27.2791 18.6512H28.7674V20.1395H27.2791V18.6512ZM27.2791 20.1395H28.7674V21.6279H27.2791V20.1395ZM25.7907 20.1395H27.2791V21.6279H25.7907V20.1395ZM25.7907 21.6279H27.2791V23.1163H25.7907V21.6279ZM25.7907 23.1163H27.2791V24.6047H25.7907V23.1163ZM25.7907 18.6512H27.2791V20.1395H25.7907V18.6512ZM27.2791 23.1163H28.7674V24.6047H27.2791V23.1163ZM27.2791 21.6279H28.7674V23.1163H27.2791V21.6279ZM31.7442 12.6977H33.2326V14.186H31.7442V12.6977ZM33.2326 12.6977H34.7209V14.186H33.2326V12.6977ZM33.2326 14.186H34.7209V15.6744H33.2326V14.186ZM33.2326 15.6744H34.7209V17.1628H33.2326V15.6744ZM33.2326 17.1628H34.7209V18.6512H33.2326V17.1628ZM31.7442 17.1628H33.2326V18.6512H31.7442V17.1628ZM31.7442 15.6744H33.2326V17.1628H31.7442V15.6744ZM31.7442 14.186H33.2326V15.6744H31.7442V14.186ZM31.7442 18.6512H33.2326V20.1395H31.7442V18.6512ZM31.7442 20.1395H33.2326V21.6279H31.7442V20.1395ZM31.7442 21.6279H33.2326V23.1163H31.7442V21.6279ZM31.7442 23.1163H33.2326V24.6047H31.7442V23.1163ZM33.2326 21.6279H34.7209V23.1163H33.2326V21.6279ZM33.2326 20.1395H34.7209V21.6279H33.2326V20.1395ZM33.2326 18.6512H34.7209V20.1395H33.2326V18.6512ZM33.2326 23.1163H34.7209V24.6047H33.2326V23.1163ZM25.7907 5.25581H27.2791V6.74419H25.7907V5.25581ZM27.2791 3.76744H28.7674V5.25581H27.2791V3.76744ZM28.7674 3.76744H30.2558V5.25581H28.7674V3.76744ZM30.2558 3.76744H31.7442V5.25581H30.2558V3.76744ZM31.7442 3.76744H33.2326V5.25581H31.7442V3.76744ZM33.2326 3.76744H34.7209V5.25581H33.2326V3.76744ZM33.2326 5.25581H34.7209V6.74419H33.2326V5.25581ZM31.7442 5.25581H33.2326V6.74419H31.7442V5.25581ZM30.2558 5.25581H31.7442V6.74419H30.2558V5.25581ZM28.7674 5.25581H30.2558V6.74419H28.7674V5.25581ZM27.2791 5.25581H28.7674V6.74419H27.2791V5.25581ZM31.7442 6.74419H33.2326V8.23256H31.7442V6.74419ZM31.7442 8.23256H33.2326V9.72093H31.7442V8.23256ZM31.7442 9.72093H33.2326V11.2093H31.7442V9.72093ZM31.7442 11.2093H33.2326V12.6977H31.7442V11.2093ZM33.2326 11.2093H34.7209V12.6977H33.2326V11.2093ZM33.2326 9.72093H34.7209V11.2093H33.2326V9.72093ZM33.2326 8.23256H34.7209V9.72093H33.2326V8.23256ZM33.2326 6.74419H34.7209V8.23256H33.2326V6.74419ZM34.7209 3.76744H36.2093V5.25581H34.7209V3.76744ZM36.2093 3.76744H37.6977V5.25581H36.2093V3.76744ZM36.2093 5.25581H37.6977V6.74419H36.2093V5.25581ZM34.7209 5.25581H36.2093V6.74419H34.7209V5.25581ZM37.6977 2.27907H39.186V3.76744H37.6977V2.27907ZM39.186 0.790699H40.6744V2.27907H39.186V0.790699ZM39.186 2.27907H40.6744V3.76744H39.186V2.27907ZM16.8605 3.76744H18.3488V5.25581H16.8605V3.76744ZM18.3488 3.76744H19.8372V5.25581H18.3488V3.76744ZM19.8372 3.76744H21.3256V5.25581H19.8372V3.76744ZM21.3256 3.76744H22.814V5.25581H21.3256V3.76744ZM22.814 5.25581H24.3023V6.74419H22.814V5.25581ZM24.3023 5.25581H25.7907V6.74419H24.3023V5.25581ZM24.3023 3.76744H25.7907V5.25581H24.3023V3.76744ZM22.814 3.76744H24.3023V5.25581H22.814V3.76744ZM19.8372 5.25581H21.3256V6.74419H19.8372V5.25581ZM21.3256 5.25581H22.814V6.74419H21.3256V5.25581ZM21.3256 35.0233H22.814V36.5116H21.3256V35.0233ZM19.8372 35.0233H21.3256V36.5116H19.8372V35.0233ZM19.8372 36.5116H21.3256V38H19.8372V36.5116ZM21.3256 36.5116H22.814V38H21.3256V36.5116ZM18.3488 35.0233H19.8372V36.5116H18.3488V35.0233ZM16.8605 35.0233H18.3488V36.5116H16.8605V35.0233ZM18.3488 36.5116H19.8372V38H18.3488V36.5116ZM21.3256 30.5581H22.814V32.0465H21.3256V30.5581ZM18.3488 32.0465H19.8372V33.5349H18.3488V32.0465ZM16.8605 32.0465H18.3488V33.5349H16.8605V32.0465ZM16.8605 33.5349H18.3488V35.0233H16.8605V33.5349ZM18.3488 33.5349H19.8372V35.0233H18.3488V33.5349ZM15.3721 32.0465H16.8605V33.5349H15.3721V32.0465ZM13.8837 32.0465H15.3721V33.5349H13.8837V32.0465ZM13.8837 33.5349H15.3721V35.0233H13.8837V33.5349ZM15.3721 33.5349H16.8605V35.0233H15.3721V33.5349ZM12.3953 32.0465H13.8837V33.5349H12.3953V32.0465ZM15.3721 30.5581H16.8605V32.0465H15.3721V30.5581ZM13.8837 29.0698H15.3721V30.5581H13.8837V29.0698ZM13.8837 30.5581H15.3721V32.0465H13.8837V30.5581ZM12.3953 29.0698H13.8837V30.5581H12.3953V29.0698ZM10.907 29.0698H12.3953V30.5581H10.907V29.0698ZM10.907 30.5581H12.3953V32.0465H10.907V30.5581ZM12.3953 30.5581H13.8837V32.0465H12.3953V30.5581ZM12.3953 27.5814H13.8837V29.0698H12.3953V27.5814ZM12.3953 26.093H13.8837V27.5814H12.3953V26.093ZM12.3953 24.6047H13.8837V26.093H12.3953V24.6047ZM12.3953 23.1163H13.8837V24.6047H12.3953V23.1163ZM12.3953 21.6279H13.8837V23.1163H12.3953V21.6279ZM10.907 21.6279H12.3953V23.1163H10.907V21.6279ZM10.907 20.1395H12.3953V21.6279H10.907V20.1395ZM12.3953 20.1395H13.8837V21.6279H12.3953V20.1395ZM10.907 23.1163H12.3953V24.6047H10.907V23.1163ZM10.907 24.6047H12.3953V26.093H10.907V24.6047ZM10.907 26.093H12.3953V27.5814H10.907V26.093ZM10.907 27.5814H12.3953V29.0698H10.907V27.5814ZM9.4186 27.5814H10.907V29.0698H9.4186V27.5814ZM7.93023 26.093H9.4186V27.5814H7.93023V26.093ZM7.93023 24.6047H9.4186V26.093H7.93023V24.6047ZM9.4186 23.1163H10.907V24.6047H9.4186V23.1163ZM9.4186 21.6279H10.907V23.1163H9.4186V21.6279ZM9.4186 20.1395H10.907V21.6279H9.4186V20.1395ZM7.93023 20.1395H9.4186V21.6279H7.93023V20.1395ZM7.93023 21.6279H9.4186V23.1163H7.93023V21.6279ZM7.93023 23.1163H9.4186V24.6047H7.93023V23.1163ZM9.4186 26.093H10.907V27.5814H9.4186V26.093ZM9.4186 24.6047H10.907V26.093H9.4186V24.6047ZM22.814 27.5814H24.3023V29.0698H22.814V27.5814ZM24.3023 27.5814H25.7907V29.0698H24.3023V27.5814ZM24.3023 29.0698H25.7907V30.5581H24.3023V29.0698ZM22.814 30.5581H24.3023V32.0465H22.814V30.5581ZM22.814 29.0698H24.3023V30.5581H22.814V29.0698ZM30.2558 30.5581H31.7442V32.0465H30.2558V30.5581ZM31.7442 27.5814H33.2326V29.0698H31.7442V27.5814ZM33.2326 27.5814H34.7209V29.0698H33.2326V27.5814ZM28.7674 33.5349H30.2558V35.0233H28.7674V33.5349ZM28.7674 32.0465H30.2558V33.5349H28.7674V32.0465ZM30.2558 32.0465H31.7442V33.5349H30.2558V32.0465ZM33.2326 29.0698H34.7209V30.5581H33.2326V29.0698ZM31.7442 29.0698H33.2326V30.5581H31.7442V29.0698ZM31.7442 30.5581H33.2326V32.0465H31.7442V30.5581ZM22.814 26.093H24.3023V27.5814H22.814V26.093ZM24.3023 26.093H25.7907V27.5814H24.3023V26.093ZM31.7442 26.093H33.2326V27.5814H31.7442V26.093ZM33.2326 26.093H34.7209V27.5814H33.2326V26.093ZM27.2791 35.0233H28.7674V36.5116H27.2791V35.0233ZM25.7907 35.0233H27.2791V36.5116H25.7907V35.0233ZM24.3023 35.0233H25.7907V36.5116H24.3023V35.0233ZM22.814 35.0233H24.3023V36.5116H22.814V35.0233ZM22.814 36.5116H24.3023V38H22.814V36.5116ZM24.3023 36.5116H25.7907V38H24.3023V36.5116ZM25.7907 36.5116H27.2791V38H25.7907V36.5116ZM27.2791 33.5349H28.7674V35.0233H27.2791V33.5349ZM27.2791 24.6047H28.7674V26.093H27.2791V24.6047ZM27.2791 26.093H28.7674V27.5814H27.2791V26.093ZM25.7907 27.5814H27.2791V29.0698H25.7907V27.5814ZM25.7907 26.093H27.2791V27.5814H25.7907V26.093ZM25.7907 24.6047H27.2791V26.093H25.7907V24.6047ZM22.814 24.6047H24.3023V26.093H22.814V24.6047ZM24.3023 24.6047H25.7907V26.093H24.3023V24.6047ZM27.2791 27.5814H28.7674V29.0698H27.2791V27.5814ZM25.7907 29.0698H27.2791V30.5581H25.7907V29.0698ZM24.3023 30.5581H25.7907V32.0465H24.3023V30.5581ZM31.7442 24.6047H33.2326V26.093H31.7442V24.6047ZM33.2326 24.6047H34.7209V26.093H33.2326V24.6047ZM19.8372 32.0465H21.3256V33.5349H19.8372V32.0465ZM21.3256 32.0465H22.814V33.5349H21.3256V32.0465ZM37.6977 3.76744H39.186V5.25581H37.6977V3.76744ZM22.814 9.72093H24.3023V11.2093H22.814V9.72093ZM1.97674 6.74419H3.46512V8.23256H1.97674V6.74419ZM25.7907 3.76744H27.2791V5.25581H25.7907V3.76744ZM4.95349 3.76744H6.44186V5.25581H4.95349V3.76744ZM3.46512 5.25581H4.95349V6.74419H3.46512V5.25581ZM7.93023 3.76744H9.4186V5.25581H7.93023V3.76744ZM15.3721 3.76744H16.8605V5.25581H15.3721V3.76744ZM13.8837 3.76744H15.3721V5.25581H13.8837V3.76744ZM9.4186 3.76744H10.907V5.25581H9.4186V3.76744ZM10.907 3.76744H12.3953V5.25581H10.907V3.76744ZM12.3953 3.76744H13.8837V5.25581H12.3953V3.76744ZM24.3023 2.27907H25.7907V3.76744H24.3023V2.27907ZM22.814 2.27907H24.3023V3.76744H22.814V2.27907ZM25.7907 2.27907H27.2791V3.76744H25.7907V2.27907ZM27.2791 2.27907H28.7674V3.76744H27.2791V2.27907ZM19.8372 0.790699H21.3256V2.27907H19.8372V0.790699ZM21.3256 0.790699H22.814V2.27907H21.3256V0.790699ZM0.488372 8.23256H1.97674V9.72093H0.488372V8.23256ZM9.4186 29.0698H10.907V30.5581H9.4186V29.0698ZM15.3721 35.0233H16.8605V36.5116H15.3721V35.0233ZM16.8605 14.186H18.3488V15.6744H16.8605V14.186ZM3.46512 3.76744H4.95349V5.25581H3.46512V3.76744ZM6.44186 2.27907H7.93023V3.76744H6.44186V2.27907ZM9.4186 0.790699H10.907V2.27907H9.4186V0.790699ZM4.95349 2.27907H6.44186V3.76744H4.95349V2.27907ZM6.44186 0.790699H7.93023V2.27907H6.44186V0.790699ZM7.93023 0.790699H9.4186V2.27907H7.93023V0.790699ZM24.3023 6.74419H25.7907V8.23256H24.3023V6.74419ZM22.814 6.74419H24.3023V8.23256H22.814V6.74419ZM21.3256 6.74419H22.814V8.23256H21.3256V6.74419ZM6.44186 3.76744H7.93023V5.25581H6.44186V3.76744ZM16.8605 5.25581H18.3488V6.74419H16.8605V5.25581ZM18.3488 5.25581H19.8372V6.74419H18.3488V5.25581ZM0.488372 14.186H1.97674V15.6744H0.488372V14.186ZM0.488372 12.6977H1.97674V14.186H0.488372V12.6977ZM1.97674 12.6977H3.46512V14.186H1.97674V12.6977ZM3.46512 11.2093H4.95349V12.6977H3.46512V11.2093ZM4.95349 11.2093H6.44186V12.6977H4.95349V11.2093ZM4.95349 9.72093H6.44186V11.2093H4.95349V9.72093ZM3.46512 9.72093H4.95349V11.2093H3.46512V9.72093ZM6.44186 9.72093H7.93023V11.2093H6.44186V9.72093ZM7.93023 9.72093H9.4186V11.2093H7.93023V9.72093ZM9.4186 12.6977H10.907V14.186H9.4186V12.6977ZM7.93023 14.186H9.4186V15.6744H7.93023V14.186ZM6.44186 14.186H7.93023V15.6744H6.44186V14.186ZM6.44186 12.6977H7.93023V14.186H6.44186V12.6977ZM6.44186 11.2093H7.93023V12.6977H6.44186V11.2093ZM7.93023 11.2093H9.4186V12.6977H7.93023V11.2093ZM7.93023 12.6977H9.4186V14.186H7.93023V12.6977ZM10.907 12.6977H12.3953V14.186H10.907V12.6977ZM10.907 14.186H12.3953V15.6744H10.907V14.186ZM9.4186 14.186H10.907V15.6744H9.4186V14.186ZM1.97674 11.2093H3.46512V12.6977H1.97674V11.2093ZM4.95349 12.6977H6.44186V14.186H4.95349V12.6977ZM12.3953 12.6977H13.8837V14.186H12.3953V12.6977ZM12.3953 14.186H13.8837V15.6744H12.3953V14.186ZM9.4186 11.2093H10.907V12.6977H9.4186V11.2093ZM10.907 11.2093H12.3953V12.6977H10.907V11.2093ZM9.4186 9.72093H10.907V11.2093H9.4186V9.72093Z" fill="#FFC362"/>
</svg>
