<svg width="28" height="28" viewBox="0 0 28 28" fill="none" xmlns="http://www.w3.org/2000/svg">
<path d="M13.66 27.3211C21.12 27.3211 27.3206 21.1337 27.3206 13.6606C27.3206 6.20057 21.1063 0 13.6463 0C6.17372 0 0 6.20057 0 13.6606C0 21.1337 6.18686 27.3211 13.66 27.3211ZM13.6606 25.0446C7.33829 25.0446 2.28857 19.9817 2.28857 13.6606C2.28857 7.352 7.32457 2.27657 13.6463 2.27657C19.9543 2.27657 25.0297 7.35257 25.0434 13.6606C25.0566 19.9823 19.9674 25.0446 13.6594 25.0446M19.4183 16.5131C19.78 17.0086 20.396 17.0491 20.7709 16.5131L22.9137 13.4863C23.2623 13.0046 23.128 12.4149 22.512 12.4149H21.1726C20.5171 8.70514 17.5034 6.13371 13.6869 6.13371C12.0126 6.13371 10.3383 6.72286 9.17314 7.68743C8.53029 8.18286 8.38286 8.87943 8.852 9.37486C9.30743 9.88343 9.92343 9.80343 10.4589 9.40172C11.4234 8.65143 12.3874 8.24971 13.6869 8.24971C16.352 8.24971 18.5749 10.0577 19.1646 12.4154H17.6646C17.0486 12.4154 16.9011 13.004 17.2491 13.4863L19.4183 16.5131ZM4.80686 14.8526H6.21257C6.86971 18.5623 9.88229 21.1337 13.7131 21.1337C15.3737 21.1337 17.0611 20.5577 18.2263 19.5937C18.856 19.0851 19.0034 18.388 18.548 17.8926C18.0794 17.384 17.4629 17.4777 16.9406 17.8657C15.9766 18.616 15.012 19.0314 13.7131 19.0314C11.0343 19.0314 8.81086 17.2229 8.22171 14.8526H9.64172C10.2709 14.8526 10.4051 14.2634 10.0703 13.7811L7.88743 10.768C7.53886 10.2589 6.90914 10.232 6.53429 10.768L4.39143 13.7811C4.04286 14.2634 4.17714 14.8526 4.80686 14.8526Z" fill="#FFC362"/>
</svg>
